<svg width="1024" height="1024" viewBox="0 0 1024 1024" fill="none" xmlns="http://www.w3.org/2000/svg">
  <g clip-path="url(#clip0)">
    <rect width="1024" height="1024" rx="200" fill="#4285F4"/>
    <path d="M414.264 788.978C403.671 789.566 396.021 786.919 391.313 781.036C386.605 774.565 385.133 764.858 386.899 751.916C388.076 740.739 391.018 732.209 395.726 726.327C401.023 719.856 407.79 716.326 416.029 715.738C474.879 711.62 528.138 700.443 575.806 682.206C623.474 663.381 664.08 639.556 697.624 610.731C731.757 581.317 757.945 548.374 776.188 511.901C794.432 474.84 803.553 436.014 803.553 395.423C803.553 363.656 796.197 339.831 781.485 323.948C766.772 307.476 745.586 299.24 717.927 299.24C693.799 299.24 668.494 305.711 642.011 318.653C615.529 331.007 588.753 348.949 561.682 372.48C535.2 395.423 509.306 423.072 484.001 455.427C459.284 487.193 436.038 522.784 414.264 562.198C393.078 601.024 374.54 642.498 358.651 686.618L221.826 1109.29C219.472 1117.53 214.764 1123.71 207.702 1127.82C200.64 1131.94 190.342 1134 176.806 1134C163.859 1134 154.149 1131.94 147.676 1127.82C141.202 1123.71 139.437 1116.94 142.379 1107.53L371.01 406.012C356.297 420.719 340.702 434.837 324.224 448.367C307.746 461.898 290.386 475.428 272.142 488.958C254.488 501.9 235.656 515.431 215.647 529.549C203.288 537.785 192.99 540.432 184.751 537.491C176.512 534.549 169.156 527.784 162.682 517.195C156.797 507.783 154.443 498.959 155.62 490.723C156.797 481.899 162.977 474.251 174.158 467.78C208.879 446.014 240.952 423.954 270.377 401.6C300.39 378.657 327.755 354.832 352.472 330.124C377.189 304.829 398.669 278.651 416.912 251.59C423.974 241.589 430.447 234.824 436.332 231.294C442.217 227.765 451.633 226 464.58 226C478.116 226 487.826 228.059 493.711 232.177C500.184 236.295 501.655 243.06 498.124 252.472L452.222 398.07C479.293 361.597 507.835 330.419 537.848 304.535C568.45 278.651 599.64 259.238 631.419 246.295C663.786 232.765 696.153 226 728.52 226C760.299 226 787.664 232.471 810.615 245.413C834.155 258.355 852.104 276.592 864.463 300.122C876.821 323.653 883 351.596 883 383.951C883 439.249 871.524 490.723 848.573 538.373C825.622 585.435 792.96 627.202 750.589 663.675C708.806 699.56 659.078 728.386 601.405 750.152C544.321 771.918 481.941 784.86 414.264 788.978Z" fill="white"/>
  </g>
  <defs>
    <clipPath id="clip0">
      <rect width="1024" height="1024" rx="200" fill="white"/>
    </clipPath>
  </defs>
</svg>
